<svg width="37" height="33" viewBox="0 0 37 33" fill="none" xmlns="http://www.w3.org/2000/svg">
<path fill-rule="evenodd" clip-rule="evenodd" d="M29.8583 11.9154L26.9783 21.2829C26.925 21.4567 26.7542 21.5819 26.5518 21.5956L15.3414 22.3605L14.8113 23.3001H25.5552C25.8203 23.3001 26.0352 23.4907 26.0352 23.7259C26.0352 23.9611 25.8203 24.1517 25.5552 24.1517H14.0351C13.8687 24.1517 13.7142 24.0753 13.6267 23.9498C13.5392 23.8242 13.5313 23.6675 13.6057 23.5355L14.2249 22.4369L14.0713 22.4473L14.0351 22.4485C13.8147 22.4486 13.6225 22.3155 13.5691 22.1258L9.91942 9.13235C9.86094 8.94897 9.67202 8.82252 9.45718 8.82296H6.355C6.08991 8.82296 5.875 8.63233 5.875 8.39716C5.875 8.162 6.08991 7.97137 6.355 7.97137H9.45718C10.1092 7.97225 10.6796 8.36059 10.8492 8.91902L11.542 11.3857C11.5727 11.3805 11.6038 11.3778 11.6351 11.3778H29.3952C29.5448 11.3778 29.6858 11.4396 29.7766 11.545C29.8674 11.6504 29.8976 11.7874 29.8583 11.9154ZM16.4351 16.9131C16.4351 16.6779 16.65 16.4873 16.9151 16.4873H19.3152V14.3583C19.3152 14.1231 19.5301 13.9325 19.7952 13.9325C20.0603 13.9325 20.2752 14.1231 20.2752 14.3583V16.4873H22.6752C22.9403 16.4873 23.1552 16.6779 23.1552 16.9131C23.1552 17.1483 22.9403 17.3389 22.6752 17.3389H20.2752V19.4679C20.2752 19.703 20.0603 19.8937 19.7952 19.8937C19.5301 19.8937 19.3152 19.703 19.3152 19.4679V17.3389H16.9151C16.65 17.3389 16.4351 17.1483 16.4351 16.9131ZM11.7782 12.2294H28.7668L26.1405 20.7694L14.4023 21.5707L11.7782 12.2294ZM15.4751 25.0033C14.9449 25.0033 14.5151 25.3846 14.5151 25.8549C14.5151 26.3252 14.9449 26.7065 15.4751 26.7065C16.0053 26.7065 16.4351 26.3252 16.4351 25.8549C16.4351 25.3846 16.0053 25.0033 15.4751 25.0033ZM23.1552 25.8549C23.1552 25.3846 23.585 25.0033 24.1152 25.0033C24.6454 25.0033 25.0752 25.3846 25.0752 25.8549C25.0752 26.3252 24.6454 26.7065 24.1152 26.7065C23.585 26.7065 23.1552 26.3252 23.1552 25.8549Z" fill="white"/>
</svg>
