<svg width="416" height="51" viewBox="0 0 416 51" fill="none" xmlns="http://www.w3.org/2000/svg">
<path d="M27.616 22.432C29.6 23.168 31.136 24.24 32.224 25.648C33.312 27.056 33.856 28.752 33.856 30.736C33.856 33.68 32.64 35.968 30.208 37.6C27.776 39.2 24.256 40 19.648 40H0.736V6.4H18.688C23.168 6.4 26.544 7.2 28.816 8.8C31.12 10.4 32.272 12.528 32.272 15.184C32.272 16.752 31.872 18.16 31.072 19.408C30.304 20.656 29.152 21.664 27.616 22.432ZM11.872 14.32V19.312H17.152C19.616 19.312 20.848 18.48 20.848 16.816C20.848 15.152 19.616 14.32 17.152 14.32H11.872ZM18.688 32.08C21.184 32.08 22.432 31.2 22.432 29.44C22.432 27.68 21.184 26.8 18.688 26.8H11.872V32.08H18.688ZM51.397 40.48C48.485 40.48 45.861 39.904 43.525 38.752C41.221 37.568 39.413 35.952 38.101 33.904C36.789 31.824 36.133 29.472 36.133 26.848C36.133 24.224 36.789 21.888 38.101 19.84C39.413 17.76 41.221 16.144 43.525 14.992C45.861 13.84 48.485 13.264 51.397 13.264C54.341 13.264 56.965 13.84 59.269 14.992C61.605 16.144 63.413 17.76 64.693 19.84C66.005 21.888 66.661 24.224 66.661 26.848C66.661 29.472 66.005 31.824 64.693 33.904C63.413 35.952 61.605 37.568 59.269 38.752C56.965 39.904 54.341 40.48 51.397 40.48ZM51.397 32.032C52.645 32.032 53.669 31.584 54.469 30.688C55.269 29.76 55.669 28.48 55.669 26.848C55.669 25.216 55.269 23.952 54.469 23.056C53.669 22.16 52.645 21.712 51.397 21.712C50.149 21.712 49.125 22.16 48.325 23.056C47.525 23.952 47.125 25.216 47.125 26.848C47.125 28.48 47.525 29.76 48.325 30.688C49.125 31.584 50.149 32.032 51.397 32.032ZM51.253 50.848C50.005 50.848 48.965 50.464 48.133 49.696C47.333 48.928 46.933 47.92 46.933 46.672C46.933 45.424 47.333 44.4 48.133 43.6C48.965 42.8 50.005 42.4 51.253 42.4C52.501 42.4 53.525 42.8 54.325 43.6C55.157 44.4 55.573 45.424 55.573 46.672C55.573 47.92 55.157 48.928 54.325 49.696C53.525 50.464 52.501 50.848 51.253 50.848ZM55.285 10.864L51.253 7.168L47.221 10.864H40.501L46.645 3.184H55.861L62.005 10.864H55.285ZM113.487 4.384V40H103.167V37.84C101.599 39.6 99.1989 40.48 95.9669 40.48C93.6629 40.48 91.5349 39.936 89.5829 38.848C87.6629 37.728 86.1269 36.128 84.9749 34.048C83.8549 31.968 83.2949 29.568 83.2949 26.848C83.2949 24.128 83.8549 21.744 84.9749 19.696C86.1269 17.616 87.6629 16.032 89.5829 14.944C91.5349 13.824 93.6629 13.264 95.9669 13.264C98.8789 13.264 101.103 14.016 102.639 15.52V4.384H113.487ZM98.5589 32.032C99.8069 32.032 100.831 31.584 101.631 30.688C102.431 29.76 102.831 28.48 102.831 26.848C102.831 25.216 102.431 23.952 101.631 23.056C100.831 22.16 99.8069 21.712 98.5589 21.712C97.3109 21.712 96.2869 22.16 95.4869 23.056C94.6869 23.952 94.2869 25.216 94.2869 26.848C94.2869 28.48 94.6869 29.76 95.4869 30.688C96.2869 31.584 97.3109 32.032 98.5589 32.032ZM95.3909 6.64H115.935V11.92H95.3909V6.64ZM132.163 40.48C129.251 40.48 126.627 39.904 124.291 38.752C121.987 37.568 120.179 35.952 118.867 33.904C117.555 31.824 116.899 29.472 116.899 26.848C116.899 24.224 117.555 21.888 118.867 19.84C120.179 17.76 121.987 16.144 124.291 14.992C126.627 13.84 129.251 13.264 132.163 13.264C135.107 13.264 137.731 13.84 140.035 14.992C142.371 16.144 144.179 17.76 145.459 19.84C146.771 21.888 147.427 24.224 147.427 26.848C147.427 29.472 146.771 31.824 145.459 33.904C144.179 35.952 142.371 37.568 140.035 38.752C137.731 39.904 135.107 40.48 132.163 40.48ZM132.163 32.032C133.411 32.032 134.435 31.584 135.235 30.688C136.035 29.76 136.435 28.48 136.435 26.848C136.435 25.216 136.035 23.952 135.235 23.056C134.435 22.16 133.411 21.712 132.163 21.712C130.915 21.712 129.891 22.16 129.091 23.056C128.291 23.952 127.891 25.216 127.891 26.848C127.891 28.48 128.291 29.76 129.091 30.688C129.891 31.584 130.915 32.032 132.163 32.032ZM136.051 10.864L132.019 7.168L127.987 10.864H121.267L127.411 3.184H136.627L142.771 10.864H136.051ZM150.822 13.744H161.67V40H150.822V13.744ZM156.246 11.632C154.294 11.632 152.71 11.12 151.494 10.096C150.31 9.04 149.718 7.712 149.718 6.112C149.718 4.512 150.31 3.2 151.494 2.176C152.71 1.12 154.294 0.591998 156.246 0.591998C158.23 0.591998 159.814 1.088 160.998 2.08C162.182 3.072 162.774 4.352 162.774 5.92C162.774 7.584 162.182 8.96 160.998 10.048C159.814 11.104 158.23 11.632 156.246 11.632ZM198.389 13.264C200.693 13.264 202.805 13.824 204.725 14.944C206.677 16.032 208.213 17.616 209.333 19.696C210.485 21.744 211.061 24.128 211.061 26.848C211.061 29.568 210.485 31.968 209.333 34.048C208.213 36.128 206.677 37.728 204.725 38.848C202.805 39.936 200.693 40.48 198.389 40.48C195.157 40.48 192.757 39.6 191.189 37.84V40H180.869V4.384H191.717V15.52C193.253 14.016 195.477 13.264 198.389 13.264ZM195.797 32.032C197.045 32.032 198.069 31.584 198.869 30.688C199.669 29.76 200.069 28.48 200.069 26.848C200.069 25.216 199.669 23.952 198.869 23.056C198.069 22.16 197.045 21.712 195.797 21.712C194.549 21.712 193.525 22.16 192.725 23.056C191.925 23.952 191.525 25.216 191.525 26.848C191.525 28.48 191.925 29.76 192.725 30.688C193.525 31.584 194.549 32.032 195.797 32.032ZM225.582 13.264C230.19 13.264 233.71 14.304 236.142 16.384C238.574 18.432 239.79 21.6 239.79 25.888V40H229.71V36.544C228.462 39.168 225.982 40.48 222.27 40.48C220.19 40.48 218.414 40.128 216.942 39.424C215.502 38.688 214.398 37.712 213.63 36.496C212.894 35.248 212.526 33.856 212.526 32.32C212.526 29.728 213.518 27.76 215.502 26.416C217.486 25.072 220.494 24.4 224.526 24.4H228.894C228.542 22.352 226.894 21.328 223.95 21.328C222.766 21.328 221.566 21.52 220.35 21.904C219.134 22.256 218.094 22.752 217.23 23.392L213.774 16.24C215.278 15.312 217.086 14.592 219.198 14.08C221.342 13.536 223.47 13.264 225.582 13.264ZM225.534 33.952C226.302 33.952 226.99 33.744 227.598 33.328C228.206 32.912 228.654 32.288 228.942 31.456V29.632H226.254C224.046 29.632 222.942 30.368 222.942 31.84C222.942 32.448 223.166 32.96 223.614 33.376C224.094 33.76 224.734 33.952 225.534 33.952ZM228.126 3.184H238.446L228.99 10.864H221.79L228.126 3.184ZM262.718 13.264C265.95 13.264 268.542 14.24 270.494 16.192C272.478 18.144 273.47 21.088 273.47 25.024V40H262.622V26.896C262.622 23.888 261.55 22.384 259.406 22.384C258.19 22.384 257.198 22.816 256.43 23.68C255.694 24.512 255.326 25.84 255.326 27.664V40H244.478V13.744H254.798V16.336C255.822 15.312 257.006 14.544 258.35 14.032C259.694 13.52 261.15 13.264 262.718 13.264ZM306.684 40.48C303.708 40.48 301.036 39.904 298.668 38.752C296.332 37.6 294.492 35.984 293.148 33.904C291.836 31.824 291.18 29.472 291.18 26.848C291.18 24.224 291.836 21.888 293.148 19.84C294.492 17.76 296.332 16.144 298.668 14.992C301.036 13.84 303.708 13.264 306.684 13.264C309.884 13.264 312.62 13.952 314.892 15.328C317.164 16.704 318.732 18.608 319.596 21.04L311.196 25.168C310.172 22.864 308.652 21.712 306.636 21.712C305.356 21.712 304.284 22.16 303.42 23.056C302.588 23.952 302.172 25.216 302.172 26.848C302.172 28.512 302.588 29.792 303.42 30.688C304.284 31.584 305.356 32.032 306.636 32.032C308.652 32.032 310.172 30.88 311.196 28.576L319.596 32.704C318.732 35.136 317.164 37.04 314.892 38.416C312.62 39.792 309.884 40.48 306.684 40.48ZM340.343 13.264C343.575 13.264 346.167 14.24 348.119 16.192C350.103 18.144 351.095 21.088 351.095 25.024V40H340.247V26.896C340.247 23.888 339.175 22.384 337.031 22.384C335.815 22.384 334.823 22.816 334.055 23.68C333.319 24.512 332.951 25.84 332.951 27.664V40H322.103V4.384H332.951V15.856C334.967 14.128 337.431 13.264 340.343 13.264ZM367.566 13.264C372.174 13.264 375.694 14.304 378.126 16.384C380.558 18.432 381.774 21.6 381.774 25.888V40H371.694V36.544C370.446 39.168 367.966 40.48 364.254 40.48C362.174 40.48 360.398 40.128 358.926 39.424C357.486 38.688 356.382 37.712 355.614 36.496C354.878 35.248 354.51 33.856 354.51 32.32C354.51 29.728 355.502 27.76 357.486 26.416C359.47 25.072 362.478 24.4 366.51 24.4H370.878C370.526 22.352 368.878 21.328 365.934 21.328C364.75 21.328 363.55 21.52 362.334 21.904C361.118 22.256 360.078 22.752 359.214 23.392L355.758 16.24C357.262 15.312 359.07 14.592 361.182 14.08C363.326 13.536 365.454 13.264 367.566 13.264ZM367.518 33.952C368.286 33.952 368.974 33.744 369.582 33.328C370.19 32.912 370.638 32.288 370.926 31.456V29.632H368.238C366.03 29.632 364.926 30.368 364.926 31.84C364.926 32.448 365.15 32.96 365.598 33.376C366.078 33.76 366.718 33.952 367.518 33.952ZM367.71 50.848C366.462 50.848 365.422 50.464 364.59 49.696C363.79 48.928 363.39 47.92 363.39 46.672C363.39 45.424 363.79 44.4 364.59 43.6C365.422 42.8 366.462 42.4 367.71 42.4C368.958 42.4 369.982 42.8 370.782 43.6C371.614 44.4 372.03 45.424 372.03 46.672C372.03 47.92 371.614 48.928 370.782 49.696C369.982 50.464 368.958 50.848 367.71 50.848ZM415.226 13.744L404.426 40.528C403.05 43.952 401.338 46.352 399.29 47.728C397.242 49.104 394.73 49.792 391.754 49.792C390.282 49.792 388.794 49.568 387.29 49.12C385.818 48.704 384.65 48.144 383.786 47.44L387.386 40C387.93 40.416 388.538 40.752 389.21 41.008C389.914 41.264 390.586 41.392 391.226 41.392C392.41 41.392 393.306 41.04 393.914 40.336L382.874 13.744H394.01L399.434 27.808L404.954 13.744H415.226Z" fill="white"/>
</svg>
