<svg width="25" height="25" viewBox="0 0 25 25" fill="none" xmlns="http://www.w3.org/2000/svg">
<g clip-path="url(#clip0_5_45)">
<path d="M20.5758 19.5284C19.5108 17.8124 17.1663 15.9734 12.3738 15.9734C7.58131 15.9734 5.23831 17.8109 4.17181 19.5284C5.15444 20.7602 6.40219 21.7547 7.82223 22.4377C9.24227 23.1207 10.7981 23.4747 12.3738 23.4734C13.9496 23.4747 15.5054 23.1207 16.9254 22.4377C18.3454 21.7547 19.5932 20.7602 20.5758 19.5284Z" fill="black"/>
<path fill-rule="evenodd" clip-rule="evenodd" d="M12.3749 14.4734C13.5684 14.4734 14.7129 13.9993 15.5569 13.1554C16.4008 12.3115 16.8749 11.1669 16.8749 9.97339C16.8749 8.77991 16.4008 7.63532 15.5569 6.79141C14.7129 5.94749 13.5684 5.47339 12.3749 5.47339C11.1814 5.47339 10.0368 5.94749 9.1929 6.79141C8.34898 7.63532 7.87488 8.77991 7.87488 9.97339C7.87488 11.1669 8.34898 12.3115 9.1929 13.1554C10.0368 13.9993 11.1814 14.4734 12.3749 14.4734Z" fill="black"/>
<path fill-rule="evenodd" clip-rule="evenodd" d="M12.3749 2.47339C9.59011 2.47339 6.91939 3.57964 4.95026 5.54877C2.98112 7.5179 1.87488 10.1886 1.87488 12.9734C1.87488 15.7582 2.98112 18.4289 4.95026 20.398C6.91939 22.3671 9.59011 23.4734 12.3749 23.4734C15.1597 23.4734 17.8304 22.3671 19.7995 20.398C21.7686 18.4289 22.8749 15.7582 22.8749 12.9734C22.8749 10.1886 21.7686 7.5179 19.7995 5.54877C17.8304 3.57964 15.1597 2.47339 12.3749 2.47339ZM0.374878 12.9734C0.374878 9.79079 1.63916 6.73854 3.8896 4.48811C6.14003 2.23767 9.19228 0.973389 12.3749 0.973389C15.5575 0.973389 18.6097 2.23767 20.8602 4.48811C23.1106 6.73854 24.3749 9.79079 24.3749 12.9734C24.3749 16.156 23.1106 19.2082 20.8602 21.4587C18.6097 23.7091 15.5575 24.9734 12.3749 24.9734C9.19228 24.9734 6.14003 23.7091 3.8896 21.4587C1.63916 19.2082 0.374878 16.156 0.374878 12.9734Z" fill="black"/>
</g>
<defs>
<clipPath id="clip0_5_45">
<rect width="24" height="24" fill="white" transform="translate(0.374878 0.973389)"/>
</clipPath>
</defs>
</svg>
