<svg width="25" height="25" viewBox="0 0 25 25" fill="none" xmlns="http://www.w3.org/2000/svg">
<g clip-path="url(#clip0_5_62)">
<path d="M4.87488 0.973389H19.8749C20.6705 0.973389 21.4336 1.28946 21.9962 1.85207C22.5588 2.41468 22.8749 3.17774 22.8749 3.97339V21.9734C22.8749 22.769 22.5588 23.5321 21.9962 24.0947C21.4336 24.6573 20.6705 24.9734 19.8749 24.9734H4.87488C4.07923 24.9734 3.31617 24.6573 2.75356 24.0947C2.19095 23.5321 1.87488 22.769 1.87488 21.9734V20.4734H3.37488V21.9734C3.37488 22.3712 3.53291 22.7527 3.81422 23.034C4.09552 23.3154 4.47705 23.4734 4.87488 23.4734H19.8749C20.2727 23.4734 20.6542 23.3154 20.9355 23.034C21.2168 22.7527 21.3749 22.3712 21.3749 21.9734V3.97339C21.3749 3.57556 21.2168 3.19403 20.9355 2.91273C20.6542 2.63142 20.2727 2.47339 19.8749 2.47339H4.87488C4.47705 2.47339 4.09552 2.63142 3.81422 2.91273C3.53291 3.19403 3.37488 3.57556 3.37488 3.97339V5.47339H1.87488V3.97339C1.87488 3.17774 2.19095 2.41468 2.75356 1.85207C3.31617 1.28946 4.07923 0.973389 4.87488 0.973389V0.973389Z" fill="black"/>
<path d="M1.87488 8.47339V7.72339C1.87488 7.52448 1.9539 7.33371 2.09455 7.19306C2.2352 7.05241 2.42597 6.97339 2.62488 6.97339C2.82379 6.97339 3.01456 7.05241 3.15521 7.19306C3.29586 7.33371 3.37488 7.52448 3.37488 7.72339V8.47339H4.12488C4.32379 8.47339 4.51456 8.55241 4.65521 8.69306C4.79586 8.83371 4.87488 9.02448 4.87488 9.22339C4.87488 9.4223 4.79586 9.61307 4.65521 9.75372C4.51456 9.89437 4.32379 9.97339 4.12488 9.97339H1.12488C0.925966 9.97339 0.7352 9.89437 0.594548 9.75372C0.453896 9.61307 0.374878 9.4223 0.374878 9.22339C0.374878 9.02448 0.453896 8.83371 0.594548 8.69306C0.7352 8.55241 0.925966 8.47339 1.12488 8.47339H1.87488ZM1.87488 12.9734V12.2234C1.87488 12.0245 1.9539 11.8337 2.09455 11.6931C2.2352 11.5524 2.42597 11.4734 2.62488 11.4734C2.82379 11.4734 3.01456 11.5524 3.15521 11.6931C3.29586 11.8337 3.37488 12.0245 3.37488 12.2234V12.9734H4.12488C4.32379 12.9734 4.51456 13.0524 4.65521 13.1931C4.79586 13.3337 4.87488 13.5245 4.87488 13.7234C4.87488 13.9223 4.79586 14.1131 4.65521 14.2537C4.51456 14.3944 4.32379 14.4734 4.12488 14.4734H1.12488C0.925966 14.4734 0.7352 14.3944 0.594548 14.2537C0.453896 14.1131 0.374878 13.9223 0.374878 13.7234C0.374878 13.5245 0.453896 13.3337 0.594548 13.1931C0.7352 13.0524 0.925966 12.9734 1.12488 12.9734H1.87488ZM1.87488 17.4734V16.7234C1.87488 16.5245 1.9539 16.3337 2.09455 16.1931C2.2352 16.0524 2.42597 15.9734 2.62488 15.9734C2.82379 15.9734 3.01456 16.0524 3.15521 16.1931C3.29586 16.3337 3.37488 16.5245 3.37488 16.7234V17.4734H4.12488C4.32379 17.4734 4.51456 17.5524 4.65521 17.6931C4.79586 17.8337 4.87488 18.0245 4.87488 18.2234C4.87488 18.4223 4.79586 18.6131 4.65521 18.7537C4.51456 18.8944 4.32379 18.9734 4.12488 18.9734H1.12488C0.925966 18.9734 0.7352 18.8944 0.594548 18.7537C0.453896 18.6131 0.374878 18.4223 0.374878 18.2234C0.374878 18.0245 0.453896 17.8337 0.594548 17.6931C0.7352 17.5524 0.925966 17.4734 1.12488 17.4734H1.87488Z" fill="black"/>
<path fill-rule="evenodd" clip-rule="evenodd" d="M16.6568 10.1923C16.7266 10.2619 16.782 10.3447 16.8198 10.4358C16.8576 10.5269 16.8771 10.6246 16.8771 10.7233C16.8771 10.8219 16.8576 10.9196 16.8198 11.0107C16.782 11.1018 16.7266 11.1846 16.6568 11.2543L12.1568 15.7543C12.0871 15.8241 12.0043 15.8795 11.9132 15.9173C11.8221 15.9551 11.7244 15.9746 11.6258 15.9746C11.5271 15.9746 11.4294 15.9551 11.3383 15.9173C11.2472 15.8795 11.1644 15.8241 11.0948 15.7543L8.84476 13.5043C8.77503 13.4345 8.71972 13.3517 8.68198 13.2606C8.64424 13.1695 8.62482 13.0719 8.62482 12.9733C8.62482 12.8746 8.64424 12.777 8.68198 12.6859C8.71972 12.5948 8.77503 12.512 8.84476 12.4423C8.9145 12.3725 8.99728 12.3172 9.08839 12.2795C9.1795 12.2417 9.27715 12.2223 9.37576 12.2223C9.47438 12.2223 9.57203 12.2417 9.66314 12.2795C9.75425 12.3172 9.83703 12.3725 9.90676 12.4423L11.6258 14.1628L15.5948 10.1923C15.6644 10.1224 15.7472 10.067 15.8383 10.0292C15.9294 9.99139 16.0271 9.97192 16.1258 9.97192C16.2244 9.97192 16.3221 9.99139 16.4132 10.0292C16.5043 10.067 16.5871 10.1224 16.6568 10.1923V10.1923Z" fill="black"/>
</g>
<defs>
<clipPath id="clip0_5_62">
<rect width="24" height="24" fill="white" transform="translate(0.374878 0.973389)"/>
</clipPath>
</defs>
</svg>
