<svg width="25" height="25" viewBox="0 0 25 25" fill="none" xmlns="http://www.w3.org/2000/svg">
<g clip-path="url(#clip0_5_67)">
<path fill-rule="evenodd" clip-rule="evenodd" d="M0.374878 3.22339C0.374878 3.02448 0.453896 2.83371 0.594548 2.69306C0.7352 2.55241 0.925966 2.47339 1.12488 2.47339H3.37488C3.54218 2.47343 3.70465 2.52941 3.83647 2.63243C3.9683 2.73544 4.06189 2.87956 4.10238 3.04189L4.70988 5.47339H22.1249C22.235 5.47349 22.3438 5.49784 22.4434 5.54471C22.5431 5.59159 22.6312 5.65983 22.7015 5.74459C22.7718 5.82936 22.8225 5.92856 22.8502 6.03517C22.8778 6.14177 22.8816 6.25314 22.8614 6.36139L20.6114 18.3614C20.5792 18.5333 20.488 18.6885 20.3535 18.8002C20.219 18.912 20.0497 18.9732 19.8749 18.9734H6.37488C6.20003 18.9732 6.03073 18.912 5.89624 18.8002C5.76176 18.6885 5.67055 18.5333 5.63838 18.3614L3.38988 6.38389L2.78988 3.97339H1.12488C0.925966 3.97339 0.7352 3.89437 0.594548 3.75372C0.453896 3.61307 0.374878 3.4223 0.374878 3.22339ZM5.02788 6.97339L6.99738 17.4734H19.2524L21.2219 6.97339H5.02788ZM7.87488 18.9734C7.07923 18.9734 6.31617 19.2895 5.75356 19.8521C5.19095 20.4147 4.87488 21.1777 4.87488 21.9734C4.87488 22.769 5.19095 23.5321 5.75356 24.0947C6.31617 24.6573 7.07923 24.9734 7.87488 24.9734C8.67053 24.9734 9.43359 24.6573 9.9962 24.0947C10.5588 23.5321 10.8749 22.769 10.8749 21.9734C10.8749 21.1777 10.5588 20.4147 9.9962 19.8521C9.43359 19.2895 8.67053 18.9734 7.87488 18.9734ZM18.3749 18.9734C17.5792 18.9734 16.8162 19.2895 16.2536 19.8521C15.691 20.4147 15.3749 21.1777 15.3749 21.9734C15.3749 22.769 15.691 23.5321 16.2536 24.0947C16.8162 24.6573 17.5792 24.9734 18.3749 24.9734C19.1705 24.9734 19.9336 24.6573 20.4962 24.0947C21.0588 23.5321 21.3749 22.769 21.3749 21.9734C21.3749 21.1777 21.0588 20.4147 20.4962 19.8521C19.9336 19.2895 19.1705 18.9734 18.3749 18.9734ZM7.87488 20.4734C7.47705 20.4734 7.09552 20.6314 6.81422 20.9127C6.53291 21.194 6.37488 21.5756 6.37488 21.9734C6.37488 22.3712 6.53291 22.7527 6.81422 23.034C7.09552 23.3154 7.47705 23.4734 7.87488 23.4734C8.2727 23.4734 8.65423 23.3154 8.93554 23.034C9.21684 22.7527 9.37488 22.3712 9.37488 21.9734C9.37488 21.5756 9.21684 21.194 8.93554 20.9127C8.65423 20.6314 8.2727 20.4734 7.87488 20.4734ZM18.3749 20.4734C17.9771 20.4734 17.5955 20.6314 17.3142 20.9127C17.0329 21.194 16.8749 21.5756 16.8749 21.9734C16.8749 22.3712 17.0329 22.7527 17.3142 23.034C17.5955 23.3154 17.9771 23.4734 18.3749 23.4734C18.7727 23.4734 19.1542 23.3154 19.4355 23.034C19.7168 22.7527 19.8749 22.3712 19.8749 21.9734C19.8749 21.5756 19.7168 21.194 19.4355 20.9127C19.1542 20.6314 18.7727 20.4734 18.3749 20.4734Z" fill="black"/>
</g>
<defs>
<clipPath id="clip0_5_67">
<rect width="24" height="24" fill="white" transform="translate(0.374878 0.973389)"/>
</clipPath>
</defs>
</svg>
